<mxfile host="65bd71144e">
    <diagram id="HECAZkdGn9ZkTrP8V5AV" name="Page-1">
        <mxGraphModel dx="699" dy="710" grid="1" gridSize="10" guides="1" tooltips="1" connect="1" arrows="1" fold="1" page="1" pageScale="1" pageWidth="850" pageHeight="1100" math="0" shadow="0">
            <root>
                <mxCell id="0"/>
                <mxCell id="1" parent="0"/>
                <mxCell id="R4IRdDzYn93T7iIMmBxd-1" value="Workspace" style="ellipse;shape=cloud;whiteSpace=wrap;html=1;" parent="1" vertex="1">
                    <mxGeometry x="50" y="60" width="120" height="80" as="geometry"/>
                </mxCell>
                <mxCell id="2" value="I did this inside VS Code&amp;nbsp;" style="rounded=1;whiteSpace=wrap;html=1;fillColor=#60a917;strokeColor=#2D7600;fontColor=#ffffff;" vertex="1" parent="1">
                    <mxGeometry x="80" y="10" width="550" height="30" as="geometry"/>
                </mxCell>
            </root>
        </mxGraphModel>
    </diagram>
</mxfile>